Coordinates
version=1
nRows=29
nColumns=20
inDegrees=yes

Units are S.I. units (second, meters, Newtons, ...)
Angles are in degrees.

endheader
time	pelvis_tilt	pelvis_list	pelvis_rotation	pelvis_tx	pelvis_ty	pelvis_tz	hip_flexion_r	hip_adduction_r	hip_rotation_r	knee_angle_r	ankle_angle_r	hip_flexion_l	hip_adduction_l	hip_rotation_l	knee_angle_l	ankle_angle_l	lumbar_extension	lumbar_bending	lumbar_rotation
      1.25000000	      4.65333298	     -4.28190592	     -4.34984517	      0.57917855	      1.01377679	      0.04525582	    -21.15652552	      4.43748833	      3.05579035	     -8.64241024	     14.03331685	     19.05843306	     -5.42739759	     -4.49128972	     -3.52965254	     -0.75955021	    -16.84973196	      2.27953715	      4.48595146
      1.26700000	      4.51230962	     -4.01852049	     -4.40254127	      0.58130727	      1.01243154	      0.04338996	    -21.34018478	      3.95692594	      3.17714704	    -10.45802086	     14.25453202	     19.61277106	     -4.95660676	     -4.02518964	     -6.11154451	     -1.52420062	    -16.39551422	      1.72320699	      4.29791629
      1.28300000	      4.29345967	     -4.13242640	     -4.60984452	      0.58225006	      1.01144515	      0.04203051	    -20.98094023	      3.86129216	      3.48965684	    -13.07250661	     14.28739401	     20.18089793	     -4.98171760	     -3.76300375	     -8.68537740	     -2.63600411	    -16.15986958	      1.41062754	      4.23688154
      1.30000000	      4.18235144	     -3.96249875	     -4.83642653	      0.58475826	      1.01122501	      0.04043538	    -20.78045962	      3.42582459	      3.63005480	    -15.60680833	     13.78384347	     20.52966925	     -4.74211812	     -3.77152505	    -11.33975491	     -3.48234738	    -15.77574406	      0.73219403	      4.13944836
      1.31700000	      4.31341827	     -3.67770038	     -5.02277264	      0.58777149	      1.01186522	      0.03859960	    -20.28326363	      2.87927415	      3.65238371	    -19.14925392	     12.98272916	     20.44528028	     -4.37388133	     -3.93748636	    -13.77691005	     -4.00664952	    -15.60811059	     -0.02805403	      3.84348490
      1.33300000	      4.51072789	     -3.40509639	     -5.07464822	      0.59093731	      1.01301685	      0.03654550	    -19.33644628	      2.37659116	      3.33638039	    -23.52147800	     11.59583664	     20.12615424	     -3.97781620	     -4.01365102	    -15.97859610	     -4.09425472	    -15.44976137	     -0.73482669	      3.61303531
      1.35000000	      4.95558115	     -3.03444918	     -4.98426378	      0.59426855	      1.01493943	      0.03394443	    -18.11004849	      1.70086583	      2.47161820	    -28.61784720	      9.32091053	     19.29759567	     -3.39876397	     -4.04064250	    -17.78056458	     -3.82538978	    -15.51585671	     -1.46335036	      3.24909156
      1.36700000	      5.25090110	     -2.60051518	     -4.75331157	      0.59731169	      1.01680861	      0.03060481	    -16.11823398	      0.82047956	      1.01327592	    -34.41299122	      6.00974077	     18.40073670	     -2.69176473	     -4.02505985	    -19.13226811	     -3.28748730	    -15.47808424	     -2.14006030	      2.69435883
      1.38300000	      5.40305320	     -2.06230515	     -4.59977501	      0.59969288	      1.01854572	      0.02695042	    -13.43624850	     -0.46189393	     -0.77290488	    -40.59704149	      1.81606279	     17.41391827	     -1.87828242	     -4.11993912	    -19.99742634	     -2.54238747	    -15.39709601	     -2.82266845	      2.31493594
      1.40000000	      5.50097024	     -1.47723246	     -4.45602278	      0.60132406	      1.02029243	      0.02339403	    -10.46316136	     -1.99924844	     -2.54316074	    -46.55518228	     -2.71612328	     16.33962191	     -1.00076007	     -4.19288881	    -20.52613790	     -1.62568461	    -15.23941246	     -3.50811918	      1.69727011
      1.41700000	      5.74031252	     -0.89126912	     -4.37786471	      0.60266448	      1.02278719	      0.01967527	     -7.69106937	     -3.67666609	     -4.00917390	    -51.79457740	     -6.66108054	     14.76709493	     -0.06920758	     -4.34397014	    -20.36268387	     -0.75981823	    -15.37230329	     -4.15225197	      1.27405958
      1.43300000	      5.88313388	     -0.23557497	     -4.54343235	      0.60248857	      1.02499170	      0.01632538	     -4.64108846	     -5.32645660	     -4.68595030	    -56.77347304	     -8.75844506	     13.25653394	      0.89433453	     -4.65999022	    -19.95386453	      0.04681142	    -15.45454805	     -4.82085072	      0.95964414
      1.45000000	      6.06201947	      0.20211584	     -4.70183456	      0.60201446	      1.02761578	      0.01301015	     -1.77809394	     -6.51165943	     -4.86717121	    -61.04071090	     -8.86952994	     11.64434292	      1.66529573	     -4.87659724	    -19.41490571	      0.82472844	    -15.49429626	     -5.17910894	      0.66051532
      1.46700000	      6.10279023	      0.10318628	     -4.17003136	      0.60245145	      1.03089045	      0.00951051	      0.66669388	     -6.78872401	     -5.44813831	    -64.15735750	     -7.57373895	     10.01714179	      1.95724360	     -4.31634892	    -18.68241633	      1.54248255	    -15.47558164	     -4.83730797	     -0.32887881
      1.48300000	      6.31486575	      0.06490246	     -3.91315709	      0.60155987	      1.03425241	      0.00683100	      3.06955903	     -6.91409956	     -5.51826129	    -66.81010643	     -5.50124814	      8.09380344	      2.23135136	     -4.01435250	    -17.56788686	      2.02190150	    -15.64550849	     -4.61843672	     -0.98494626
      1.50000000	      6.25340296	     -0.14327989	     -3.39648854	      0.60043807	      1.03693043	      0.00412392	      5.57727918	     -6.64967239	     -5.71906042	    -68.64274690	     -3.36361108	      6.60687809	      2.30039079	     -3.38887524	    -16.71131504	      2.57992389	    -15.65583365	     -4.18938926	     -1.82335951
      1.51700000	      6.28696081	     -0.47900053	     -2.73231744	      0.59911838	      1.03957709	      0.00167932	      7.79451183	     -6.16415812	     -6.08520124	    -69.59443631	     -1.55584165	      4.89144690	      2.19967722	     -2.62015798	    -15.56369421	      3.01005083	    -15.73930171	     -3.54669651	     -2.64809028
      1.53300000	      6.32083587	     -0.78342806	     -2.16996960	      0.59789242	      1.04190052	     -0.00064612	      9.88367422	     -5.60099346	     -6.26033399	    -69.74545510	     -0.19244712	      3.09207295	      2.09247933	     -1.98822459	    -14.24865437	      3.35953515	    -15.83495520	     -2.99842000	     -3.59422775
      1.55000000	      6.13163091	     -0.87847893	     -1.76983805	      0.59552969	      1.04301323	     -0.00253622	     12.28496934	     -5.21021685	     -6.26638502	    -69.39606532	      0.80064300	      1.76048938	      2.14232414	     -1.57872700	    -13.24666589	      3.76472938	    -15.79333660	     -2.72825855	     -4.09394109
      1.56700000	      6.14143065	     -1.29302350	     -0.97981984	      0.59417217	      1.04443347	     -0.00451924	     13.96026018	     -4.53518939	     -6.78500976	    -67.91407717	      1.40266839	      0.10086810	      1.81376164	     -0.75869503	    -12.11970646	      4.21271862	    -15.85707148	     -2.02952674	     -4.90127788
      1.58300000	      6.08152779	     -1.50049044	     -0.50873269	      0.59216406	      1.04504898	     -0.00601416	     15.70111194	     -4.07860538	     -7.02266703	    -65.89257757	      1.79833902	     -1.35327534	      1.66253231	     -0.24396290	    -11.18611663	      4.71045825	    -15.91346709	     -1.63373494	     -5.48938246
      1.60000000	      6.06356133	     -1.71864607	     -0.24393250	      0.59098873	      1.04544485	     -0.00720554	     17.10748079	     -3.58133157	     -7.10651141	    -63.08006698	      2.07336019	     -3.06940435	      1.48081957	      0.08627522	     -9.91779183	      5.10290939	    -15.96740110	     -1.21296744	     -5.71666581
      1.61700000	      5.94615621	     -1.69997648	      0.11182031	      0.58810031	      1.04501513	     -0.00841346	     18.50079007	     -3.48011905	     -7.42835788	    -59.69380504	      2.31029872	     -4.42035913	      1.52201657	      0.56793441	     -8.92987925	      5.48566222	    -16.12740860	     -1.09143669	     -5.94714305
      1.63300000	      5.57778240	     -1.73334914	      0.26775608	      0.58604726	      1.04357935	     -0.00931343	     19.85264905	     -3.37743171	     -7.83640965	    -55.62775966	      2.54291665	     -5.45898334	      1.51789174	      0.81595599	     -8.17659295	      6.08055763	    -15.77912107	     -0.89821871	     -6.08941913
      1.65000000	      5.44280295	     -1.47559027	      0.21080332	      0.58369444	      1.04200594	     -0.01015085	     20.71044490	     -3.59604342	     -8.22175609	    -50.91928362	      2.71177944	     -6.84118770	      1.85359387	      0.78753975	     -7.20676851	      6.53608762	    -15.79910793	     -1.02036523	     -6.16225576
      1.66700000	      5.41729552	     -1.37776356	      0.27664095	      0.58218015	      1.04040854	     -0.01054669	     20.95805639	     -3.69172453	     -9.15426717	    -45.37617678	      2.65287344	     -8.42391237	      1.95456788	      0.83754523	     -6.16704178	      7.01043606	    -15.91671782	     -0.99389374	     -6.16503965
      1.68300000	      5.21091698	     -0.96856632	      0.20347267	      0.58026210	      1.03764486	     -0.01109480	     21.33877491	     -4.02165859	     -9.94491171	    -39.60418049	      2.46574994	     -9.59331076	      2.42004666	      0.85910288	     -5.56960509	      7.69826039	    -15.87608336	     -1.30614009	     -6.19849161
      1.70000000	      4.89685100	     -0.64931619	      0.17252492	      0.57925164	      1.03449535	     -0.01115246	     21.43536835	     -4.07936203	    -10.75444490	    -33.24205895	      2.15554277	    -10.78556324	      2.74386697	      0.92548049	     -4.81542016	      8.36275832	    -15.58449515	     -1.53898915	     -6.28471893
      1.71700000	      5.00843316	     -0.14092198	      0.12457208	      0.57785965	      1.03177516	     -0.01100371	     20.91372952	     -4.12498025	    -11.03633086	    -26.61732306	      1.73398885	    -12.36558430	      3.27666865	      1.03434244	     -4.16526567	      8.98828674	    -15.87518256	     -2.00061855	     -6.27359445
